<?xml version="1.0" encoding="utf-8"?>
<!-- Generator: Adobe Illustrator 15.1.0, SVG Export Plug-In . SVG Version: 6.00 Build 0)  -->
<!DOCTYPE svg PUBLIC "-//W3C//DTD SVG 1.1//EN" "http://www.w3.org/Graphics/SVG/1.1/DTD/svg11.dtd">
<svg version="1.1" id="Layer_1" xmlns="http://www.w3.org/2000/svg" xmlns:xlink="http://www.w3.org/1999/xlink" viewBox="0 0 294.825 258.982"
	 xml:space="preserve">
<g>
	<path fill="#8080F2" d="M97.021,99.016l48.432-27.962c1.212-0.7,2.706-0.7,3.918,0l48.433,27.962
		c1.211,0.7,1.959,1.993,1.959,3.393v55.924c0,1.399-0.748,2.693-1.959,3.394l-48.433,27.962c-1.212,0.7-2.706,0.7-3.918,0
		l-48.432-27.962c-1.212-0.7-1.959-1.994-1.959-3.394v-55.924C95.063,101.009,95.81,99.716,97.021,99.016"/>
	<path fill="#4B32C3" d="M273.336,124.488L215.469,23.816c-2.102-3.64-5.985-6.325-10.188-6.325H89.545
		c-4.204,0-8.088,2.685-10.19,6.325l-57.867,100.45c-2.102,3.641-2.102,8.236,0,11.877l57.867,99.847
		c2.102,3.64,5.986,5.501,10.19,5.501h115.735c4.203,0,8.087-1.805,10.188-5.446l57.867-100.01
		C275.439,132.396,275.439,128.128,273.336,124.488 M225.419,172.898c0,1.48-0.891,2.849-2.174,3.59l-73.71,42.527
		c-1.282,0.74-2.888,0.74-4.17,0l-73.767-42.527c-1.282-0.741-2.179-2.109-2.179-3.59V87.843c0-1.481,0.884-2.849,2.167-3.59
		l73.707-42.527c1.282-0.741,2.886-0.741,4.168,0l73.772,42.527c1.283,0.741,2.186,2.109,2.186,3.59V172.898z"/>
</g>
</svg>
