<svg width="298" height="180" viewBox="0 0 298 180" fill="none" xmlns="http://www.w3.org/2000/svg">
<path d="M166.532 140.346C166.474 135.202 165.271 130.123 163.394 125.352C161.947 121.658 160.266 118.062 158.625 114.452C145.564 85.9875 131.857 57.8239 117.516 29.9826C115.499 26.0924 113.525 22.1786 111.395 18.3486C109.301 14.6125 106.864 11.0159 103.71 8.09165C98.6759 3.29274 91.9216 0.431594 84.9897 0H81.7983C74.6623 0.352322 67.6966 3.34706 62.5762 8.33828C59.5374 11.217 57.1857 14.727 55.1481 18.3589C53.0459 22.1258 51.0993 25.9778 49.1204 29.8064C39.4975 48.4858 30.158 67.3097 21.105 86.2718C15.7086 97.6195 10.3577 108.986 5.21087 120.446C3.07639 125.22 1.14596 130.156 0.419294 135.368C-0.926869 144.167 1.00356 153.402 5.70412 160.958C9.75582 167.522 15.8378 172.811 22.9268 175.866C28.4685 178.258 34.4918 179.324 40.5179 178.979C48.567 178.552 56.3283 175.66 63.1384 171.44C70.7354 166.777 77.2328 160.576 83.2824 154.085C88.9078 160.148 94.9281 165.933 101.878 170.468C108.589 174.884 116.242 178.081 124.291 178.841C133.033 179.754 142.091 177.588 149.428 172.721C155.917 168.421 160.943 162.246 163.835 155.019C165.697 150.355 166.614 145.367 166.532 140.346ZM83.3191 136.952C81.1244 134.368 79.1911 131.573 77.2489 128.799C73.9811 124.005 71.0099 118.995 68.62 113.702C66.6616 109.309 65.0894 104.698 64.4758 99.9096C64.028 96.1104 64.1352 92.1468 65.5298 88.5399C66.7776 85.1576 69.1763 82.2275 72.2151 80.2912C79.4553 75.6185 89.7754 76.1235 96.3359 81.7915C99.6566 84.6203 101.64 88.8027 102.139 93.101C102.792 98.8145 101.493 104.553 99.498 109.882C95.7311 119.77 89.7681 128.634 83.3191 136.952ZM154.36 149.07C152.426 155.748 147.775 161.582 141.69 164.948C136.297 167.965 129.859 168.998 123.779 167.983C116.035 166.777 109.087 162.668 103.067 157.818C98.6422 154.263 94.658 150.199 90.8412 146.011C96.8673 138.389 102.544 130.415 106.881 121.698C110.665 114.064 113.541 105.793 113.814 97.2099C113.968 91.7636 112.943 86.2175 110.399 81.3687C107.069 74.8904 101.101 69.9138 94.2602 67.5063C87.8699 65.2235 80.7662 65.0195 74.2468 66.878C68.0988 68.6176 62.4837 72.3125 58.636 77.4344C55.2494 81.9001 53.3189 87.3904 52.8712 92.9586C52.1827 100.978 54.1924 108.979 57.2326 116.351C61.7526 127.124 68.3865 136.874 75.7134 145.918C72.4096 149.734 68.8245 153.297 64.9881 156.576C59.0397 161.61 52.2341 165.992 44.5241 167.66C38.2909 169.059 31.566 168.363 25.8496 165.471C19.154 162.134 14.013 155.849 12.0738 148.625C10.5911 143.319 10.9199 137.589 12.683 132.391C14.1496 128.089 16.1387 123.991 18.0001 119.852C30.9215 91.695 44.4742 63.8316 58.6478 36.2833C60.7617 32.1831 62.8434 28.0639 65.0806 24.0313C66.9068 20.7826 69.031 17.5926 72.0331 15.3113C75.2791 12.7825 79.2946 11.4441 83.4087 11.5195C87.6365 11.4695 91.8394 13.0271 95.0735 15.7444C98.2678 18.3971 100.426 22.026 102.364 25.6431C106.744 33.8713 110.951 42.1949 115.16 50.5097C127.172 74.2837 138.714 98.2922 149.779 122.521C151.451 126.285 153.24 130.02 154.366 133.992C155.742 138.891 155.787 144.182 154.36 149.07Z" fill="#FF7977"/>
<path d="M187.617 133.586C190.049 133.586 192.035 134.397 193.575 136.018C195.196 137.639 196.007 139.706 196.007 142.219C196.007 144.812 195.196 146.96 193.575 148.663C192.035 150.284 190.049 151.094 187.617 151.094C185.267 151.094 183.281 150.243 181.66 148.541C180.12 146.839 179.35 144.731 179.35 142.219C179.35 139.706 180.12 137.639 181.66 136.018C183.281 134.397 185.267 133.586 187.617 133.586ZM197.296 159.848C199.161 160.497 201.025 160.861 202.889 160.942C205.564 161.024 207.591 160.132 208.968 158.268C210.427 156.484 211.157 153.85 211.157 150.365V84.953H226.963V152.796C226.963 159.524 225.139 164.752 221.492 168.481C217.925 172.29 212.94 174.195 206.537 174.195C202.079 174.195 197.864 173.385 193.892 171.763L197.296 159.848ZM218.938 56.9889C221.532 56.9889 223.68 57.8805 225.382 59.6637C227.084 61.4469 227.935 63.7165 227.935 66.4723C227.935 69.1472 227.084 71.3762 225.382 73.1594C223.68 74.9426 221.532 75.8343 218.938 75.8343C216.345 75.8343 214.197 74.9426 212.494 73.1594C210.792 71.3762 209.941 69.1472 209.941 66.4723C209.941 63.7165 210.792 61.4469 212.494 59.6637C214.197 57.8805 216.345 56.9889 218.938 56.9889ZM284.25 102.583C281.089 100.718 277.806 99.2593 274.402 98.2056C271.079 97.1518 267.999 96.625 265.162 96.625C262.487 96.625 260.339 97.1113 258.718 98.084C257.178 98.9756 256.408 100.394 256.408 102.339C256.408 104.366 257.38 105.946 259.326 107.081C261.352 108.135 264.513 109.27 268.809 110.485C273.348 111.863 277.077 113.241 279.995 114.619C282.913 115.916 285.426 117.902 287.533 120.577C289.722 123.171 290.816 126.615 290.816 130.911C290.816 137.234 288.384 142.097 283.521 145.501C278.657 148.906 272.538 150.608 265.162 150.608C260.136 150.608 255.232 149.838 250.45 148.298C245.668 146.677 241.615 144.407 238.292 141.489L243.763 130.425C246.681 132.938 250.166 134.924 254.219 136.383C258.272 137.761 262.122 138.45 265.77 138.45C268.688 138.45 270.998 137.963 272.7 136.991C274.483 135.937 275.375 134.397 275.375 132.37C275.375 130.101 274.362 128.399 272.335 127.264C270.309 126.129 267.026 124.873 262.487 123.495C258.11 122.198 254.543 120.942 251.788 119.726C249.032 118.429 246.641 116.524 244.614 114.011C242.588 111.418 241.575 108.054 241.575 103.92C241.575 97.5166 243.885 92.6533 248.505 89.33C253.206 85.9257 259.083 84.2235 266.134 84.2235C270.43 84.2235 274.645 84.8314 278.779 86.0472C282.994 87.2631 286.723 88.9652 289.965 91.1537L284.25 102.583Z" fill="#464646"/>
</svg>
