<svg id="Layer_1" xmlns="http://www.w3.org/2000/svg" viewBox="0 0 210 210" width="2500" height="2500"><style>.st0{fill:#56b3b4}.st1{fill:#ea5e5e}.st2{fill:#bf85bf}.st3{fill:#f7ba3e}.st4{opacity:.5;fill:#d0d4d8;enable-background:new}</style><title>prettier-icon-light</title><g id="Page-1"><g id="prettier-icon-light"><g id="Icon-_x28_Light_x29_"><g id="Group"><path id="Rectangle" class="st0" d="M155 40h10c2.8 0 5 2.2 5 5s-2.2 5-5 5h-10c-2.8 0-5-2.2-5-5s2.2-5 5-5z"/><path id="Rectangle_1_" class="st1" d="M5 200h50c2.8 0 5 2.2 5 5s-2.2 5-5 5H5c-2.8 0-5-2.2-5-5s2.2-5 5-5z"/><path id="Rectangle_2_" class="st2" d="M125 120h30c2.8 0 5 2.2 5 5s-2.2 5-5 5h-30c-2.8 0-5-2.2-5-5s2.2-5 5-5z"/><path id="Rectangle_3_" class="st1" d="M65 120h40c2.8 0 5 2.2 5 5s-2.2 5-5 5H65c-2.8 0-5-2.2-5-5s2.2-5 5-5z"/><path id="Rectangle_4_" class="st0" d="M5 120h40c2.8 0 5 2.2 5 5s-2.2 5-5 5H5c-2.8 0-5-2.2-5-5s2.2-5 5-5z"/><path id="Rectangle_5_" class="st2" d="M5 160h50c2.8 0 5 2.2 5 5s-2.2 5-5 5H5c-2.8 0-5-2.2-5-5s2.2-5 5-5z"/><path id="Rectangle_6_" class="st2" d="M5 80h50c2.8 0 5 2.2 5 5s-2.2 5-5 5H5c-2.8 0-5-2.2-5-5s2.2-5 5-5z"/><path id="Rectangle_7_" class="st3" d="M55 20h100c2.8 0 5 2.2 5 5s-2.2 5-5 5H55c-2.8 0-5-2.2-5-5s2.2-5 5-5z"/><path id="Rectangle_8_" class="st1" d="M5 20h30c2.8 0 5 2.2 5 5s-2.2 5-5 5H5c-2.8 0-5-2.2-5-5s2.2-5 5-5z"/><path id="Rectangle_9_" class="st3" d="M45 180h10c2.8 0 5 2.2 5 5s-2.2 5-5 5H45c-2.8 0-5-2.2-5-5s2.2-5 5-5z"/><path id="Rectangle_10_" class="st0" d="M45 60h10c2.8 0 5 2.2 5 5s-2.2 5-5 5H45c-2.8 0-5-2.2-5-5s2.2-5 5-5z"/><path id="Rectangle_11_" class="st0" d="M5 180h20c2.8 0 5 2.2 5 5s-2.2 5-5 5H5c-2.8 0-5-2.2-5-5s2.2-5 5-5z"/><path id="Rectangle_12_" class="st3" d="M5 60h20c2.8 0 5 2.2 5 5s-2.2 5-5 5H5c-2.8 0-5-2.2-5-5s2.2-5 5-5z"/><path id="Rectangle_13_" class="st4" d="M135 180h10c2.8 0 5 2.2 5 5s-2.2 5-5 5h-10c-2.8 0-5-2.2-5-5s2.2-5 5-5z"/><path id="Rectangle_14_" class="st4" d="M75 180h40c2.8 0 5 2.2 5 5s-2.2 5-5 5H75c-2.8 0-5-2.2-5-5s2.2-5 5-5z"/><path id="Rectangle_15_" class="st4" d="M165 180h40c2.8 0 5 2.2 5 5s-2.2 5-5 5h-40c-2.8 0-5-2.2-5-5s2.2-5 5-5z"/><path id="Rectangle_16_" class="st0" d="M85 100h80c2.8 0 5 2.2 5 5s-2.2 5-5 5H85c-2.8 0-5-2.2-5-5s2.2-5 5-5z"/><path id="Rectangle_17_" class="st3" d="M35 100h30c2.8 0 5 2.2 5 5s-2.2 5-5 5H35c-2.8 0-5-2.2-5-5s2.2-5 5-5z"/><path id="Rectangle_18_" class="st1" d="M5 100h10c2.8 0 5 2.2 5 5s-2.2 5-5 5H5c-2.8 0-5-2.2-5-5s2.2-5 5-5z"/><path id="Rectangle_19_" class="st2" d="M95 40h40c2.8 0 5 2.2 5 5s-2.2 5-5 5H95c-2.8 0-5-2.2-5-5s2.2-5 5-5z"/><path id="Rectangle_20_" class="st0" d="M5 40h70c2.8 0 5 2.2 5 5s-2.2 5-5 5H5c-2.8 0-5-2.2-5-5s2.2-5 5-5z"/><path id="Rectangle_21_" class="st3" d="M35 140h90c2.8 0 5 2.2 5 5s-2.2 5-5 5H35c-2.8 0-5-2.2-5-5s2.2-5 5-5z"/><path id="Rectangle_22_" class="st2" d="M5 140h10c2.8 0 5 2.2 5 5s-2.2 5-5 5H5c-2.8 0-5-2.2-5-5s2.2-5 5-5z"/><path id="Rectangle_23_" class="st1" d="M125 60h50c2.8 0 5 2.2 5 5s-2.2 5-5 5h-50c-2.8 0-5-2.2-5-5s2.2-5 5-5z"/><path id="Rectangle_24_" class="st3" d="M125 80h50c2.8 0 5 2.2 5 5s-2.2 5-5 5h-50c-2.8 0-5-2.2-5-5s2.2-5 5-5z"/><path id="Rectangle_25_" class="st0" d="M5 0h120c2.8 0 5 2.2 5 5s-2.2 5-5 5H5c-2.8 0-5-2.2-5-5s2.2-5 5-5z"/><path id="Rectangle_26_" class="st4" d="M145 0h60c2.8 0 5 2.2 5 5s-2.2 5-5 5h-60c-2.8 0-5-2.2-5-5s2.2-5 5-5z"/><path id="Rectangle_27_" class="st4" d="M145 140h20c2.8 0 5 2.2 5 5s-2.2 5-5 5h-20c-2.8 0-5-2.2-5-5s2.2-5 5-5z"/><path id="Rectangle_28_" class="st4" d="M185 140h20c2.8 0 5 2.2 5 5s-2.2 5-5 5h-20c-2.8 0-5-2.2-5-5s2.2-5 5-5z"/><path id="Rectangle_29_" class="st4" d="M175 120h30c2.8 0 5 2.2 5 5s-2.2 5-5 5h-30c-2.8 0-5-2.2-5-5s2.2-5 5-5z"/><path id="Rectangle_30_" class="st4" d="M175 20h30c2.8 0 5 2.2 5 5s-2.2 5-5 5h-30c-2.8 0-5-2.2-5-5s2.2-5 5-5z"/><path id="Rectangle_31_" class="st4" d="M185 100h20c2.8 0 5 2.2 5 5s-2.2 5-5 5h-20c-2.8 0-5-2.2-5-5s2.2-5 5-5z"/><path id="Rectangle_32_" class="st4" d="M185 40h20c2.8 0 5 2.2 5 5s-2.2 5-5 5h-20c-2.8 0-5-2.2-5-5s2.2-5 5-5z"/><path id="Rectangle_33_" class="st4" d="M195 60h10c2.8 0 5 2.2 5 5s-2.2 5-5 5h-10c-2.8 0-5-2.2-5-5s2.2-5 5-5z"/><path id="Rectangle_34_" class="st4" d="M195 80h10c2.8 0 5 2.2 5 5s-2.2 5-5 5h-10c-2.8 0-5-2.2-5-5s2.2-5 5-5z"/><path id="Rectangle_35_" class="st4" d="M115 160h90c2.8 0 5 2.2 5 5s-2.2 5-5 5h-90c-2.8 0-5-2.2-5-5s2.2-5 5-5z"/><path id="Rectangle_36_" class="st4" d="M75 160h20c2.8 0 5 2.2 5 5s-2.2 5-5 5H75c-2.8 0-5-2.2-5-5s2.2-5 5-5z"/><path id="Rectangle_37_" class="st4" d="M155 200h50c2.8 0 5 2.2 5 5s-2.2 5-5 5h-50c-2.8 0-5-2.2-5-5s2.2-5 5-5z"/><path id="Rectangle_38_" class="st4" d="M75 200h60c2.8 0 5 2.2 5 5s-2.2 5-5 5H75c-2.8 0-5-2.2-5-5s2.2-5 5-5z"/><path id="Rectangle_39_" class="st4" d="M75 60h30c2.8 0 5 2.2 5 5s-2.2 5-5 5H75c-2.8 0-5-2.2-5-5s2.2-5 5-5z"/><path id="Rectangle_40_" class="st4" d="M75 80h30c2.8 0 5 2.2 5 5s-2.2 5-5 5H75c-2.8 0-5-2.2-5-5s2.2-5 5-5z"/></g></g></g></g></svg>